{"title":"Battle Los Angeles 2011 R5 XViD DTRG - SAFCuk009","uid":6289369,"size":1752883544,"categoryP":"video","categoryS":"movies","magnet":"?xt=urn:btih:a4abe04272ecc9c32ffa69f6d68203405ef386f3&amp;dn=Battle+Los+Angeles+2011+R5+XViD+DTRG+-+SAFCuk009&amp;tr=udp%3A%2F%2Ftracker.openbittorrent.com%3A80&amp;tr=udp%3A%2F%2Fopen.demonii.com%3A1337&amp;tr=udp%3A%2F%2Ftracker.coppersurfer.tk%3A6969&amp;tr=udp%3A%2F%2Fexodus.desync.com%3A6969","seeders":0,"leechers":1,"uploader":"SAFCukO09","files":3,"time":1301742509,"description":"\n\n\nFormat                           : AVI\nFormat/Info                      : Audio Video Interleave\nFormat profile                   : OpenDML\nFile size                        : 1.63 GiB\nDuration                         : 1h 47mn\nOverall bit rate                 : 2 183 Kbps\n\n\nVideo\nID                               : 0\nFormat                           : MPEG-4 Visual\nFormat profile                   : Advanced Simple@L5\nFormat settings, BVOP            : Yes\nFormat settings, QPel            : No\nFormat settings, GMC             : No warppoints\nFormat settings, Matrix          : Custom\nCodec ID                         : XVID\nCodec ID/Hint                    : XviD\nDuration                         : 1h 47mn\nBit rate                         : 2 050 Kbps\nWidth                            : 720 pixels\nHeight                           : 304 pixels\nDisplay aspect ratio             : 2.35:1\nFrame rate                       : 25.000 fps\nColor space                      : YUV\nChroma subsampling               : 4:2:0\nBit depth                        : 8 bits\nScan type                        : Progressive\nBits/(Pixel*Frame)               : 0.375\nStream size                      : 1.53 GiB (94%)\nWriting library                  : XviD 1.2.1 (UTC 2008-12-04)\n\nAudio\nID                               : 1\nFormat                           : MPEG Audio\nFormat version                   : Version 1\nFormat profile                   : Layer 3\nCodec ID                         : 55\nCodec ID/Hint                    : MP3\nDuration                         : 1h 47mn\nBit rate mode                    : Constant\nBit rate                         : 128 Kbps\nChannel(s)                       : 2 channels\nSampling rate                    : 44.1 KHz\nStream size                      : 98.0 MiB (6%)\nAlignment                        : Split accross interleaves\nInterleave, duration             : 500 ms (12.50 video frames)\nInterleave, preload duration     : 500 ms\n\n\n\n &lt;a href=&quot;\nhttp://www.imdb.com/title/tt1217613/&quot; rel=&quot;nofollow&quot; target=&quot;_NEW&quot;&gt;\nhttp://www.imdb.com/title/tt1217613/&lt;/a&gt;\n\n\n\n\n\n\n\nUsers: 6.4/10 (15,473 votes) 370 reviews | Critics: 179 reviews Metascore: 37/100 (based on 35 reviews from Metacritic.com)\n\nA Marine Staff Sergeant who has just had his retirement approved goes back into the line of duty in order to assist a 2nd Lieutenant and his platoon as they fight to reclaim the city of Los Angeles from alien invaders.\nDirector:\nJonathan Liebesman\nWriter:\nChristopher Bertolini\nStars:\nAaron Eckhart, Michelle Rodriguez and Bridget Moynahan \n\n\n\n\n\n\n\n &lt;a href=&quot;\nhttp://img848.imageshack.us/img848/7250/vlcsnap2011040208h00m40.png&quot; rel=&quot;nofollow&quot; target=&quot;_NEW&quot;&gt;\nhttp://img848.imageshack.us/img848/7250/vlcsnap2011040208h00m40.png&lt;/a&gt; &lt;a href=&quot;\nhttp://img20.imageshack.us/img20/2609/vlcsnap2011040208h00m52.png&quot; rel=&quot;nofollow&quot; target=&quot;_NEW&quot;&gt;\nhttp://img20.imageshack.us/img20/2609/vlcsnap2011040208h00m52.png&lt;/a&gt; &lt;a href=&quot;\nhttp://img51.imageshack.us/img51/2779/vlcsnap2011040208h01m11.png&quot; rel=&quot;nofollow&quot; target=&quot;_NEW&quot;&gt;\nhttp://img51.imageshack.us/img51/2779/vlcsnap2011040208h01m11.png&lt;/a&gt; &lt;a href=&quot;\nhttp://img837.imageshack.us/img837/6250/vlcsnap2011040207h59m57.png&quot; rel=&quot;nofollow&quot; target=&quot;_NEW&quot;&gt;\nhttp://img837.imageshack.us/img837/6250/vlcsnap2011040207h59m57.png&lt;/a&gt;\n\n\nSOURCES:\n\n\n\nVIDEO: DVD 9 ELEKTRI4KA ................ Thanks\n\nAUDIO: IMAGiNE   ...............................Thanks and for the sync \n\n\nAnother one a 100 copies out of but here my throw at it .No point talking crap saying i did this and that source was already good .. 2 filters thats all sharpen and Levels filter .........Enjoy if you aint sick \n\n\n\nGreetz to Imagine ,Flawl3ss,DiLLoN,BDK,NOiR,TOXiCiNK,THC,Ez,Rx,Boobyblue\n\n\n\n\n\n","torrent":{"xt":"urn:btih:a4abe04272ecc9c32ffa69f6d68203405ef386f3","amp;dn":"Battle+Los+Angeles+2011+R5+XViD+DTRG+-+SAFCuk009","amp;tr":["udp%3A%2F%2Ftracker.openbittorrent.com%3A80","udp%3A%2F%2Fopen.demonii.com%3A1337","udp%3A%2F%2Ftracker.coppersurfer.tk%3A6969","udp%3A%2F%2Fexodus.desync.com%3A6969"],"infoHash":"a4abe04272ecc9c32ffa69f6d68203405ef386f3","infoHashBuffer":{"type":"Buffer","data":[164,171,224,66,114,236,201,195,47,250,105,246,214,130,3,64,94,243,134,243]},"announce":[],"urlList":[]}}